<svg width="28" height="28" viewBox="0 0 28 28" fill="none" xmlns="http://www.w3.org/2000/svg">
<path d="M22 22L17.0889 17.0889M19.1667 12.0833C19.1667 13.4843 18.7512 14.8538 17.9729 16.0186C17.1946 17.1835 16.0883 18.0914 14.794 18.6275C13.4997 19.1636 12.0755 19.3039 10.7014 19.0306C9.32741 18.7573 8.06528 18.0826 7.07466 17.092C6.08404 16.1014 5.40942 14.8393 5.13611 13.4652C4.8628 12.0912 5.00307 10.667 5.53919 9.37266C6.07531 8.07835 6.9832 6.97208 8.14805 6.19376C9.31289 5.41543 10.6824 5 12.0833 5C13.962 5 15.7636 5.74628 17.092 7.07466C18.4204 8.40304 19.1667 10.2047 19.1667 12.0833Z" stroke="#3C3837" stroke-width="1.5" stroke-linecap="round" stroke-linejoin="round"/>
</svg>
